<svg width="60" height="60" fill="none" xmlns="http://www.w3.org/2000/svg"><g clip-path="url(#prefix__clip0_1_9991)"><mask id="prefix__a" style="mask-type:luminance" maskUnits="userSpaceOnUse" x="0" y="0" width="60" height="60"><path d="M60 0H0v60h60V0z" fill="#fff"/></mask><g stroke="#fff" stroke-width="4.531" stroke-linecap="round" stroke-linejoin="round" mask="url(#prefix__a)"><path d="M57.656 57.656H2.344M21.21 2.344v3.515M38.79 2.344v3.515"/></g><path d="M21.21 22.852v25.43M38.79 22.852v25.43" stroke="#fff" stroke-width="4.531" stroke-linecap="round" stroke-linejoin="round"/><path d="M48.281 14.063H11.836" stroke="#6F4EFD" stroke-width="4.531" stroke-linecap="round" stroke-linejoin="round"/><g><mask id="prefix__b" style="mask-type:luminance" maskUnits="userSpaceOnUse" x="0" y="0" width="60" height="60"><path d="M60 0H0v60h60V0z" fill="#fff"/></mask><g stroke="#6F4EFD" stroke-width="4.531" stroke-linecap="round" stroke-linejoin="round" mask="url(#prefix__b)"><path d="M2.344 21.094V7.03a4.687 4.687 0 119.375 0v14.063a4.688 4.688 0 01-9.375 0zM48.281 21.094V7.03a4.687 4.687 0 019.375 0v14.063a4.687 4.687 0 11-9.375 0z"/></g></g></g><defs><clipPath id="prefix__clip0_1_9991"><path fill="#fff" d="M0 0h60v60H0z"/></clipPath></defs></svg>