<svg width="60" height="60" fill="none" xmlns="http://www.w3.org/2000/svg"><g clip-path="url(#prefix__clip0_1_10034)"><mask id="prefix__a" style="mask-type:luminance" maskUnits="userSpaceOnUse" x="0" y="0" width="60" height="60"><path d="M60 0H0v60h60V0z" fill="#fff"/></mask><g stroke-width="5.156" stroke-linecap="round" stroke-linejoin="round" mask="url(#prefix__a)"><path d="M45.938 57.656H14.061A11.719 11.719 0 012.345 45.938V14.061A11.719 11.719 0 0114.063 2.345h31.874a11.719 11.719 0 0111.72 11.719v31.874a11.719 11.719 0 01-11.72 11.72z" stroke="#fff"/><path d="M48.281 21.328h-5.68a4.698 4.698 0 00-3.578 1.66c-1.473 1.739-4.385 4.2-9.023 4.2s-7.55-2.461-9.023-4.2a4.697 4.697 0 00-3.578-1.66h-5.68M30 17.813l4.102-6.094" stroke="#6F4EFD"/></g></g><defs><clipPath id="prefix__clip0_1_10034"><path fill="#fff" d="M0 0h60v60H0z"/></clipPath></defs></svg>