<svg width="60" height="60" fill="none" xmlns="http://www.w3.org/2000/svg"><g fill="#fff" clip-path="url(#prefix__clip0_1_10042)"><path d="M17.661 59.998A17.58 17.58 0 015.15 54.815c-6.865-6.587-6.865-18.439 0-25.025L29.788 5.15c6.587-6.865 18.439-6.864 25.025 0 3.935 3.892 5.824 9.631 4.995 15.095a2.344 2.344 0 01-4.638-.681C56.938 7.181 41.979-.321 33.102 8.465L8.463 33.105c-5.046 4.841-5.046 13.554 0 18.396 4.842 5.046 13.554 5.046 18.396 0l6.852-6.882c2.281-2.117 5.427 1.018 3.322 3.307l-6.855 6.886a17.584 17.584 0 01-12.517 5.186zm18.9-23.436c.915-.915.915-2.4 0-3.315l-9.024-9.023c-2.287-2.112-5.426 1.03-3.315 3.314l9.023 9.024a2.337 2.337 0 001.658.687c.6 0 1.2-.23 1.657-.687z"/><path d="M47.09 59.983c-2.069.013-3.14-2.556-1.639-4.018l9.624-9.422a.664.664 0 00.16-.771c-.08-.2-.259-.437-.648-.437h-8.899c-4.804.024-7.215-5.935-3.752-9.26l10.087-9.768c2.32-2.075 5.408 1.117 3.26 3.367L45.2 39.44c-.28.272-.241.568-.16.769.081.2.26.438.649.438h8.9c2.2 0 4.158 1.317 4.989 3.355a5.372 5.372 0 01-1.224 5.892l-9.623 9.42c-.437.43-1.026.67-1.64.67zM10.645 46.39a2.93 2.93 0 002.93 2.93c3.887-.154 3.885-5.706 0-5.86a2.93 2.93 0 00-2.93 2.93zm2.11-9.492a2.93 2.93 0 002.93 2.93c3.886-.155 3.885-5.706 0-5.86a2.93 2.93 0 00-2.93 2.93zm7.617 7.617a2.93 2.93 0 002.93 2.93c3.886-.154 3.885-5.706 0-5.86a2.93 2.93 0 00-2.93 2.93z" fill-opacity=".55"/></g><defs><clipPath id="prefix__clip0_1_10042"><path fill="#fff" d="M0 0h60v60H0z"/></clipPath></defs></svg>