<svg width="60" height="60" fill="none" xmlns="http://www.w3.org/2000/svg"><g clip-path="url(#prefix__clip0_1_10046)"><mask id="prefix__a" style="mask-type:luminance" maskUnits="userSpaceOnUse" x="0" y="0" width="60" height="60"><path d="M60 0H0v60h60V0z" fill="#fff"/></mask><g stroke-width="4.688" stroke-linecap="round" stroke-linejoin="round" mask="url(#prefix__a)"><path d="M47.344 21.68v-7.617a11.72 11.72 0 00-11.719-11.72H14.062a11.719 11.719 0 00-11.718 11.72v31.874a11.719 11.719 0 0011.719 11.72H25.43" stroke="#fff"/><path d="M35.156 11.484a5.86 5.86 0 01-5.86 5.86h-8.905a5.86 5.86 0 01-5.86-5.86M57.656 44.18a13.476 13.476 0 11-26.952 0 13.476 13.476 0 0126.952 0z" stroke="#fff"/><path d="M48.164 44.18H44.18v-4.805M15.234 27.89h13.243M15.234 37.266h7.383M15.234 46.64h6.211" stroke="#6F4EFD"/></g></g><defs><clipPath id="prefix__clip0_1_10046"><path fill="#fff" d="M0 0h60v60H0z"/></clipPath></defs></svg>